<?xml version="1.0" standalone="no"?>
<!DOCTYPE svg PUBLIC "-//W3C//DTD SVG 20010904//EN"
 "http://www.w3.org/TR/2001/REC-SVG-20010904/DTD/svg10.dtd">
<svg version="1.0" xmlns="http://www.w3.org/2000/svg"
 width="300.000000pt" height="300.000000pt" viewBox="0 0 300.000000 300.000000"
 preserveAspectRatio="xMidYMid meet">
<metadata>
Created by potrace 1.14, written by Peter Selinger 2001-2017
</metadata>
<g transform="translate(0.000000,300.000000) scale(0.100000,-0.100000)"
fill="#000000" stroke="none">
<path d="M1355 2964 c-206 -31 -341 -69 -480 -135 -384 -180 -683 -538 -794
-949 -36 -134 -45 -210 -46 -380 0 -153 6 -218 34 -340 43 -192 137 -393 257
-553 67 -89 236 -252 330 -319 115 -82 333 -187 444 -214 161 -38 225 -47 375
-48 173 -1 233 4 340 29 439 100 802 385 1004 790 38 77 98 242 107 295 3 14
7 33 10 42 35 115 40 431 9 587 -41 211 -139 435 -263 601 -76 101 -108 136
-226 245 -36 34 -146 112 -212 151 -221 130 -445 193 -709 199 -82 2 -163 1
-180 -1z"/>
</g>
</svg>
